<svg version="1.1" viewBox="0.0 0.0 960.0 720.0" fill="none" stroke="none" stroke-linecap="square" stroke-miterlimit="10" xmlns:xlink="http://www.w3.org/1999/xlink" xmlns="http://www.w3.org/2000/svg"><clipPath id="p.0"><path d="m0 0l960.0 0l0 720.0l-960.0 0l0 -720.0z" clip-rule="nonzero"/></clipPath><g clip-path="url(#p.0)"><path fill="#000000" fill-opacity="0.0" d="m0 0l960.0 0l0 720.0l-960.0 0z" fill-rule="evenodd"/><path fill="#cfe2f3" d="m240.0 384.0l0 0c0 -132.54834 107.45166 -240.0 240.0 -240.0l0 0c63.651978 0 124.6969 25.285645 169.70563 70.29437c45.008728 45.008728 70.29437 106.05368 70.29437 169.70563l0 0c0 132.54834 -107.45166 240.0 -240.0 240.0l0 0c-132.54834 0 -240.0 -107.45166 -240.0 -240.0z" fill-rule="evenodd"/><path stroke="#0b5394" stroke-width="2.0" stroke-linejoin="round" stroke-linecap="butt" d="m240.0 384.0l0 0c0 -132.54834 107.45166 -240.0 240.0 -240.0l0 0c63.651978 0 124.6969 25.285645 169.70563 70.29437c45.008728 45.008728 70.29437 106.05368 70.29437 169.70563l0 0c0 132.54834 -107.45166 240.0 -240.0 240.0l0 0c-132.54834 0 -240.0 -107.45166 -240.0 -240.0z" fill-rule="evenodd"/><path fill="#000000" fill-opacity="0.0" d="m128.0 384.0l727.33856 0" fill-rule="evenodd"/><path stroke="#000000" stroke-width="2.0" stroke-linejoin="round" stroke-linecap="butt" d="m128.0 384.0l715.33856 0" fill-rule="evenodd"/><path fill="#000000" stroke="#000000" stroke-width="2.0" stroke-linecap="butt" d="m843.33856 387.30347l9.076233 -3.3034668l-9.076233 -3.3034668z" fill-rule="evenodd"/><path fill="#cc0000" d="m480.0 384.0l0 0c0 -26.509674 21.490326 -48.0 48.0 -48.0l0 0c12.730408 0 24.939392 5.057129 33.9411 14.058868c9.00177 9.0017395 14.058899 21.210754 14.058899 33.94113l0 0c0 26.509674 -21.490356 48.0 -48.0 48.0l0 0c-26.509674 0 -48.0 -21.490326 -48.0 -48.0z" fill-rule="evenodd"/><path stroke="#000000" stroke-width="2.0" stroke-linejoin="round" stroke-linecap="butt" d="m480.0 384.0l0 0c0 -26.509674 21.490326 -48.0 48.0 -48.0l0 0c12.730408 0 24.939392 5.057129 33.9411 14.058868c9.00177 9.0017395 14.058899 21.210754 14.058899 33.94113l0 0c0 26.509674 -21.490356 48.0 -48.0 48.0l0 0c-26.509674 0 -48.0 -21.490326 -48.0 -48.0z" fill-rule="evenodd"/><g filter="url(#shadowFilter-p.1)"><use xlink:href="#p.1" transform="matrix(1.0 0.0 0.0 1.0 0.0 2.0)"/></g><defs><filter id="shadowFilter-p.1" filterUnits="userSpaceOnUse"><feGaussianBlur in="SourceAlpha" stdDeviation="2.0" result="blur"/><feComponentTransfer in="blur" color-interpolation-filters="sRGB"><feFuncR type="linear" slope="0" intercept="0.0"/><feFuncG type="linear" slope="0" intercept="0.0"/><feFuncB type="linear" slope="0" intercept="0.0"/><feFuncA type="linear" slope="0.5" intercept="0"/></feComponentTransfer></filter></defs><g id="p.1"><path fill="#000000" fill-opacity="0.0" d="m480.0 696.0l0 -688.0" fill-rule="evenodd"/><path stroke="#000000" stroke-width="2.0" stroke-linejoin="round" stroke-linecap="butt" d="m480.0 696.0l0 -676.0" fill-rule="evenodd"/><path fill="#000000" stroke="#000000" stroke-width="2.0" stroke-linecap="butt" d="m483.30347 20.0l-3.3034668 -9.076196l-3.3034668 9.076196z" fill-rule="evenodd"/></g><path fill="#cc0000" d="m288.0 384.0l0 0c0 -26.509674 21.490326 -48.0 48.0 -48.0l0 0c12.730377 0 24.939392 5.057129 33.94113 14.058868c9.0017395 9.0017395 14.058868 21.210754 14.058868 33.94113l0 0c0 26.509674 -21.490326 48.0 -48.0 48.0l0 0c-26.509674 0 -48.0 -21.490326 -48.0 -48.0z" fill-rule="evenodd"/><path stroke="#000000" stroke-width="2.0" stroke-linejoin="round" stroke-linecap="butt" d="m288.0 384.0l0 0c0 -26.509674 21.490326 -48.0 48.0 -48.0l0 0c12.730377 0 24.939392 5.057129 33.94113 14.058868c9.0017395 9.0017395 14.058868 21.210754 14.058868 33.94113l0 0c0 26.509674 -21.490326 48.0 -48.0 48.0l0 0c-26.509674 0 -48.0 -21.490326 -48.0 -48.0z" fill-rule="evenodd"/><path fill="#f1c232" d="m432.0 288.0l0 0c0 -26.509674 21.490326 -48.0 48.0 -48.0l0 0c12.730377 0 24.939392 5.057129 33.9411 14.058868c9.00177 9.0017395 14.058899 21.210754 14.058899 33.94113l0 0c0 26.509674 -21.490326 48.0 -48.0 48.0l0 0c-26.509674 0 -48.0 -21.490326 -48.0 -48.0z" fill-rule="evenodd"/><path stroke="#000000" stroke-width="2.0" stroke-linejoin="round" stroke-linecap="butt" d="m432.0 288.0l0 0c0 -26.509674 21.490326 -48.0 48.0 -48.0l0 0c12.730377 0 24.939392 5.057129 33.9411 14.058868c9.00177 9.0017395 14.058899 21.210754 14.058899 33.94113l0 0c0 26.509674 -21.490326 48.0 -48.0 48.0l0 0c-26.509674 0 -48.0 -21.490326 -48.0 -48.0z" fill-rule="evenodd"/><path fill="#000000" fill-opacity="0.0" d="m832.0 381.98425l40.0 0l0 48.472443l-40.0 0z" fill-rule="evenodd"/><path fill="#000000" d="m840.96875 414.02426l5.40625 -6.3125l-3.09375 -6.140625l2.34375 0l1.046875 2.21875q0.59375 1.25 1.0625 2.375l3.578125 -4.59375l2.59375 0l-5.234375 6.296875l3.140625 6.15625l-2.34375 0l-1.234375 -2.53125q-0.40625 -0.8125 -0.90625 -2.0l-3.703125 4.53125l-2.65625 0z" fill-rule="nonzero"/><path fill="#000000" fill-opacity="0.0" d="m488.0 -8.0l40.0 0l0 48.472443l-40.0 0z" fill-rule="evenodd"/><path fill="#000000" d="m497.0 28.8525l0.125 -2.0q0.65625 0.1875 1.28125 0.1875q0.640625 0 1.046875 -0.296875q0.515625 -0.375 1.125 -1.453125l0.671875 -1.21875l-2.0625 -12.484375l2.078125 0l0.9375 6.296875q0.28125 1.859375 0.484375 3.734375l5.5625 -10.03125l2.21875 0l-7.9375 14.109375q-1.140625 2.0625 -2.03125 2.71875q-0.890625 0.671875 -2.0625 0.671875q-0.734375 0 -1.4375 -0.234375z" fill-rule="nonzero"/></g></svg>