<!DOCTYPE svg PUBLIC "-//W3C//DTD SVG 1.1//EN" "http://www.w3.org/Graphics/SVG/1.1/DTD/svg11.dtd">
<svg version="1.1" xmlns="http://www.w3.org/2000/svg" xmlns:xlink="http://www.w3.org/1999/xlink" xml:space="preserve" width="180" height="180" viewBox="-90 -5 180 180">
<polygon points="0,50 17,40 17,20 0,10 -17,20 -17,40" fill="#00000000" stroke="#000000" stroke-width="1" />
<text x="0" y="30" fill="#000000" font-_SIZE="15" text-anchor="middle" dominant-baseline="middle">1</text>
<polygon points="-17,80 0,70 0,50 -17,40 -34,50 -34,70" fill="#00000000" stroke="#000000" stroke-width="1" />
<polygon points="17,80 34,70 34,50 17,40 0,50 0,70" fill="#00000000" stroke="#000000" stroke-width="1" />
<text x="17" y="60" fill="#000000" font-_SIZE="15" text-anchor="middle" dominant-baseline="middle">1</text>
<polygon points="-34,110 -17,100 -17,80 -34,70 -51,80 -51,100" fill="#00000000" stroke="#000000" stroke-width="1" />
<text x="-34" y="90" fill="#000000" font-_SIZE="15" text-anchor="middle" dominant-baseline="middle">1</text>
<polygon points="0,110 17,100 17,80 0,70 -17,80 -17,100" fill="#00000000" stroke="#000000" stroke-width="1" />
<text x="0" y="90" fill="#000000" font-_SIZE="15" text-anchor="middle" dominant-baseline="middle">2</text>
<polygon points="34,110 51,100 51,80 34,70 17,80 17,100" fill="#00000000" stroke="#000000" stroke-width="1" />
<polygon points="-51,140 -34,130 -34,110 -51,100 -68,110 -68,130" fill="#00000000" stroke="#000000" stroke-width="1" />
<text x="-51" y="120" fill="#000000" font-_SIZE="15" text-anchor="middle" dominant-baseline="middle">1</text>
<polygon points="-17,140 0,130 0,110 -17,100 -34,110 -34,130" fill="#00000000" stroke="#000000" stroke-width="1" />
<polygon points="17,140 34,130 34,110 17,100 0,110 0,130" fill="#00000000" stroke="#000000" stroke-width="1" />
<text x="17" y="120" fill="#000000" font-_SIZE="15" text-anchor="middle" dominant-baseline="middle">3</text>
<polygon points="51,140 68,130 68,110 51,100 34,110 34,130" fill="#00000000" stroke="#000000" stroke-width="1" />
<polygon points="-68,170 -51,160 -51,140 -68,130 -85,140 -85,160" fill="#00000000" stroke="#000000" stroke-width="1" />
<polygon points="-34,170 -17,160 -17,140 -34,130 -51,140 -51,160" fill="#00000000" stroke="#000000" stroke-width="1" />
<text x="-34" y="150" fill="#000000" font-_SIZE="15" text-anchor="middle" dominant-baseline="middle">4</text>
<polygon points="0,170 17,160 17,140 0,130 -17,140 -17,160" fill="#00000000" stroke="#000000" stroke-width="1" />
<text x="0" y="150" fill="#000000" font-_SIZE="15" text-anchor="middle" dominant-baseline="middle">6</text>
<polygon points="34,170 51,160 51,140 34,130 17,140 17,160" fill="#00000000" stroke="#000000" stroke-width="1" />
<polygon points="68,170 85,160 85,140 68,130 51,140 51,160" fill="#00000000" stroke="#000000" stroke-width="1" />
<polygon points="8,30 25,30 22,27 22,33 25,30" fill="#000000" stroke="#000000" stroke-width="1" transform="rotate(60 0 30)"/>
<polygon points="25,60 42,60 39,57 39,63 42,60" fill="#000000" stroke="#000000" stroke-width="1" transform="rotate(120 17 60)"/>
<polygon points="8,90 25,90 22,87 22,93 25,90" fill="#000000" stroke="#000000" stroke-width="1" transform="rotate(60 0 90)"/>
<polygon points="25,120 42,120 39,117 39,123 42,120" fill="#000000" stroke="#000000" stroke-width="1" transform="rotate(120 17 120)"/>
<polygon points="8,150 25,150 22,147 22,153 25,150" fill="#000000" stroke="#000000" stroke-width="1" transform="rotate(180 0 150)"/>
<polygon points="-25,150 -8,150 -11,147 -11,153 -8,150" fill="#000000" stroke="#000000" stroke-width="1" transform="rotate(-120 -34 150)"/>
<polygon points="-42,120 -25,120 -28,117 -28,123 -25,120" fill="#000000" stroke="#000000" stroke-width="1" transform="rotate(-60 -51 120)"/>
</svg>