<svg version="1.1" viewBox="0.0 0.0 750.0183727034121 488.25984251968504" fill="none" stroke="none" stroke-linecap="square" stroke-miterlimit="10" xmlns:xlink="http://www.w3.org/1999/xlink" xmlns="http://www.w3.org/2000/svg"><clipPath id="p.0"><path d="m0 0l750.0184 0l0 488.25986l-750.0184 0l0 -488.25986z" clip-rule="nonzero"/></clipPath><g clip-path="url(#p.0)"><path fill="#000000" fill-opacity="0.0" d="m0 0l750.0184 0l0 488.25986l-750.0184 0z" fill-rule="evenodd"/><path fill="#000000" fill-opacity="0.0" d="m144.0 197.4042l51.496063 -86.77166" fill-rule="evenodd"/><path stroke="#000000" stroke-width="4.0" stroke-linejoin="round" stroke-linecap="butt" d="m144.0 197.4042l51.496063 -86.77166" fill-rule="evenodd"/><path fill="#000000" fill-opacity="0.0" d="m195.49606 284.17584l51.496063 -86.77164" fill-rule="evenodd"/><path stroke="#000000" stroke-width="4.0" stroke-linejoin="round" stroke-linecap="butt" d="m195.49606 284.17584l51.496063 -86.77164" fill-rule="evenodd"/><path fill="#000000" fill-opacity="0.0" d="m195.49606 110.632545l51.496063 86.77166" fill-rule="evenodd"/><path stroke="#000000" stroke-width="4.0" stroke-linejoin="round" stroke-linecap="butt" d="m195.49606 110.632545l51.496063 86.77166" fill-rule="evenodd"/><path fill="#000000" fill-opacity="0.0" d="m246.99213 197.4042l51.496063 86.77164" fill-rule="evenodd"/><path stroke="#000000" stroke-width="4.0" stroke-linejoin="round" stroke-linecap="butt" d="m246.99213 197.4042l51.496063 86.77164" fill-rule="evenodd"/><path fill="#000000" fill-opacity="0.0" d="m195.49606 284.17584l69.60629 87.74805" fill-rule="evenodd"/><path stroke="#000000" stroke-width="4.0" stroke-linejoin="round" stroke-linecap="butt" d="m195.49606 284.17584l69.60629 87.74805" fill-rule="evenodd"/><path fill="#000000" fill-opacity="0.0" d="m125.88976 371.9239l69.6063 -87.74805" fill-rule="evenodd"/><path stroke="#000000" stroke-width="4.0" stroke-linejoin="round" stroke-linecap="butt" d="m125.88976 371.9239l69.6063 -87.74805" fill-rule="evenodd"/><path fill="#000000" fill-opacity="0.0" d="m195.49606 375.7349l0 -91.55905" fill-rule="evenodd"/><path stroke="#000000" stroke-width="4.0" stroke-linejoin="round" stroke-linecap="butt" d="m195.49606 375.7349l0 -91.55905" fill-rule="evenodd"/><path fill="#ffffff" d="m168.79527 370.81628l0 0c0 -13.95932 11.316269 -25.275604 25.275589 -25.275604l0 0c6.7035065 0 13.132446 2.6629639 17.872543 7.4030457c4.740097 4.7401123 7.4030457 11.169037 7.4030457 17.872559l0 0c0 13.95932 -11.316269 25.275574 -25.275589 25.275574l0 0c-13.95932 0 -25.275589 -11.316254 -25.275589 -25.275574z" fill-rule="evenodd"/><path stroke="#000000" stroke-width="4.0" stroke-linejoin="round" stroke-linecap="butt" d="m168.79527 370.81628l0 0c0 -13.95932 11.316269 -25.275604 25.275589 -25.275604l0 0c6.7035065 0 13.132446 2.6629639 17.872543 7.4030457c4.740097 4.7401123 7.4030457 11.169037 7.4030457 17.872559l0 0c0 13.95932 -11.316269 25.275574 -25.275589 25.275574l0 0c-13.95932 0 -25.275589 -11.316254 -25.275589 -25.275574z" fill-rule="evenodd"/><path fill="#000000" d="m201.1202 365.2394l-2.796875 0.21875q-0.375 -1.65625 -1.0625 -2.40625q-1.140625 -1.203125 -2.8125 -1.203125q-1.34375 0 -2.359375 0.75q-1.328125 0.96875 -2.09375 2.828125q-0.765625 1.859375 -0.796875 5.296875q1.015625 -1.546875 2.484375 -2.296875q1.46875 -0.75 3.078125 -0.75q2.8125 0 4.78125 2.078125q1.984375 2.0625 1.984375 5.34375q0 2.15625 -0.9375 4.015625q-0.921875 1.84375 -2.546875 2.828125q-1.625 0.984375 -3.6875 0.984375q-3.515625 0 -5.734375 -2.578125q-2.21875 -2.59375 -2.21875 -8.53125q0 -6.640625 2.453125 -9.65625q2.140625 -2.625 5.765625 -2.625q2.703125 0 4.421875 1.515625q1.734375 1.515625 2.078125 4.1875zm-11.484375 9.875q0 1.453125 0.609375 2.78125q0.625 1.328125 1.734375 2.03125q1.109375 0.6875 2.328125 0.6875q1.78125 0 3.0625 -1.4375q1.28125 -1.4375 1.28125 -3.90625q0 -2.375 -1.265625 -3.734375q-1.265625 -1.375 -3.1875 -1.375q-1.90625 0 -3.234375 1.375q-1.328125 1.359375 -1.328125 3.578125z" fill-rule="nonzero"/><path fill="#6d9eeb" d="m239.15224 370.81628l0 0c0 -13.95932 11.316269 -25.275604 25.275589 -25.275604l0 0c6.703491 0 13.132446 2.6629639 17.872528 7.4030457c4.7401123 4.7401123 7.4030457 11.169037 7.4030457 17.872559l0 0c0 13.95932 -11.316254 25.275574 -25.275574 25.275574l0 0c-13.95932 0 -25.275589 -11.316254 -25.275589 -25.275574z" fill-rule="evenodd"/><path stroke="#000000" stroke-width="4.0" stroke-linejoin="round" stroke-linecap="butt" d="m239.15224 370.81628l0 0c0 -13.95932 11.316269 -25.275604 25.275589 -25.275604l0 0c6.703491 0 13.132446 2.6629639 17.872528 7.4030457c4.7401123 4.7401123 7.4030457 11.169037 7.4030457 17.872559l0 0c0 13.95932 -11.316254 25.275574 -25.275574 25.275574l0 0c-13.95932 0 -25.275589 -11.316254 -25.275589 -25.275574z" fill-rule="evenodd"/><path fill="#000000" d="m261.21152 370.1144q-1.75 -0.640625 -2.59375 -1.828125q-0.84375 -1.1875 -0.84375 -2.84375q0 -2.5 1.796875 -4.203125q1.796875 -1.703125 4.78125 -1.703125q3.0 0 4.828125 1.75q1.828125 1.734375 1.828125 4.234375q0 1.59375 -0.84375 2.78125q-0.828125 1.171875 -2.53125 1.8125q2.109375 0.6875 3.203125 2.21875q1.109375 1.53125 1.109375 3.65625q0 2.9375 -2.078125 4.9375q-2.078125 2.0 -5.46875 2.0q-3.390625 0 -5.46875 -2.0q-2.078125 -2.015625 -2.078125 -5.015625q0 -2.234375 1.125 -3.734375q1.140625 -1.515625 3.234375 -2.0625zm-0.5625 -4.765625q0 1.625 1.046875 2.65625q1.046875 1.03125 2.71875 1.03125q1.625 0 2.65625 -1.015625q1.046875 -1.03125 1.046875 -2.515625q0 -1.546875 -1.078125 -2.59375q-1.0625 -1.0625 -2.65625 -1.0625q-1.609375 0 -2.671875 1.03125q-1.0625 1.03125 -1.0625 2.46875zm-0.90625 10.578125q0 1.203125 0.5625 2.328125q0.578125 1.125 1.703125 1.75q1.125 0.609375 2.421875 0.609375q2.015625 0 3.328125 -1.296875q1.3125 -1.296875 1.3125 -3.296875q0 -2.03125 -1.359375 -3.359375q-1.34375 -1.328125 -3.375 -1.328125q-1.984375 0 -3.296875 1.3125q-1.296875 1.3125 -1.296875 3.28125z" fill-rule="nonzero"/><path fill="#e06666" d="m98.438324 370.81628l0 0c0 -13.95932 11.316261 -25.275604 25.275589 -25.275604l0 0c6.7035065 0 13.132446 2.6629639 17.872543 7.4030457c4.740082 4.7401123 7.4030457 11.169037 7.4030457 17.872559l0 0c0 13.95932 -11.316269 25.275574 -25.275589 25.275574l0 0c-13.959328 0 -25.275589 -11.316254 -25.275589 -25.275574z" fill-rule="evenodd"/><path stroke="#000000" stroke-width="4.0" stroke-linejoin="round" stroke-linecap="butt" d="m98.438324 370.81628l0 0c0 -13.95932 11.316261 -25.275604 25.275589 -25.275604l0 0c6.7035065 0 13.132446 2.6629639 17.872543 7.4030457c4.740082 4.7401123 7.4030457 11.169037 7.4030457 17.872559l0 0c0 13.95932 -11.316269 25.275574 -25.275589 25.275574l0 0c-13.959328 0 -25.275589 -11.316254 -25.275589 -25.275574z" fill-rule="evenodd"/><path fill="#000000" d="m116.169495 376.5363l2.953125 -0.25q0.328125 2.15625 1.515625 3.25q1.203125 1.078125 2.890625 1.078125q2.03125 0 3.4375 -1.53125q1.40625 -1.53125 1.40625 -4.0625q0 -2.40625 -1.359375 -3.796875q-1.34375 -1.390625 -3.53125 -1.390625q-1.359375 0 -2.453125 0.625q-1.09375 0.609375 -1.71875 1.59375l-2.640625 -0.34375l2.21875 -11.765625l11.390625 0l0 2.6875l-9.140625 0l-1.234375 6.15625q2.0625 -1.4375 4.328125 -1.4375q3.0 0 5.0625 2.078125q2.0625 2.078125 2.0625 5.34375q0 3.109375 -1.8125 5.375q-2.203125 2.78125 -6.015625 2.78125q-3.125 0 -5.109375 -1.75q-1.96875 -1.75 -2.25 -4.640625z" fill-rule="nonzero"/><path fill="#6d9eeb" d="m168.79527 111.10761l0 0c0 -13.959328 11.316269 -25.275589 25.275589 -25.275589l0 0c6.7035065 0 13.132446 2.6629562 17.872543 7.4030457c4.740097 4.740097 7.4030457 11.169037 7.4030457 17.872543l0 0c0 13.95932 -11.316269 25.275597 -25.275589 25.275597l0 0c-13.95932 0 -25.275589 -11.316277 -25.275589 -25.275597z" fill-rule="evenodd"/><path stroke="#000000" stroke-width="4.0" stroke-linejoin="round" stroke-linecap="butt" d="m168.79527 111.10761l0 0c0 -13.959328 11.316269 -25.275589 25.275589 -25.275589l0 0c6.7035065 0 13.132446 2.6629562 17.872543 7.4030457c4.740097 4.740097 7.4030457 11.169037 7.4030457 17.872543l0 0c0 13.95932 -11.316269 25.275597 -25.275589 25.275597l0 0c-13.95932 0 -25.275589 -11.316277 -25.275589 -25.275597z" fill-rule="evenodd"/><path fill="#000000" d="m197.1202 122.827614l-2.8125 0l0 -17.921875q-1.015625 0.96875 -2.671875 1.9375q-1.640625 0.96875 -2.953125 1.453125l0 -2.71875q2.359375 -1.109375 4.125 -2.6875q1.765625 -1.578125 2.5 -3.0625l1.8125 0l0 23.0z" fill-rule="nonzero"/><path fill="#ffffff" d="m118.244095 197.67717l0 0c0 -13.95932 11.316269 -25.275589 25.275589 -25.275589l0 0c6.7035065 0 13.132446 2.6629486 17.872543 7.4030457c4.740097 4.740097 7.4030457 11.169037 7.4030457 17.872543l0 0c0 13.95932 -11.316269 25.275589 -25.275589 25.275589l0 0c-13.95932 0 -25.275589 -11.316269 -25.275589 -25.275589z" fill-rule="evenodd"/><path stroke="#000000" stroke-width="4.0" stroke-linejoin="round" stroke-linecap="butt" d="m118.244095 197.67717l0 0c0 -13.95932 11.316269 -25.275589 25.275589 -25.275589l0 0c6.7035065 0 13.132446 2.6629486 17.872543 7.4030457c4.740097 4.740097 7.4030457 11.169037 7.4030457 17.872543l0 0c0 13.95932 -11.316269 25.275589 -25.275589 25.275589l0 0c-13.95932 0 -25.275589 -11.316269 -25.275589 -25.275589z" fill-rule="evenodd"/><path fill="#000000" d="m150.75652 206.69405l0 2.703125l-15.140625 0q-0.03125 -1.015625 0.328125 -1.953125q0.578125 -1.546875 1.84375 -3.046875q1.28125 -1.5 3.6875 -3.46875q3.734375 -3.0625 5.046875 -4.84375q1.3125 -1.796875 1.3125 -3.390625q0 -1.671875 -1.203125 -2.8125q-1.1875 -1.15625 -3.109375 -1.15625q-2.03125 0 -3.25 1.21875q-1.21875 1.21875 -1.234375 3.375l-2.890625 -0.296875q0.296875 -3.234375 2.234375 -4.921875q1.9375 -1.703125 5.203125 -1.703125q3.296875 0 5.21875 1.828125q1.921875 1.828125 1.921875 4.53125q0 1.375 -0.5625 2.703125q-0.5625 1.328125 -1.875 2.796875q-1.296875 1.46875 -4.328125 4.03125q-2.53125 2.125 -3.25 2.890625q-0.71875 0.75 -1.1875 1.515625l11.234375 0z" fill-rule="nonzero"/><path fill="#e06666" d="m219.34645 197.67717l0 0c0 -13.95932 11.316269 -25.275589 25.275589 -25.275589l0 0c6.7035065 0 13.132446 2.6629486 17.872559 7.4030457c4.740082 4.740097 7.4030457 11.169037 7.4030457 17.872543l0 0c0 13.95932 -11.316284 25.275589 -25.275604 25.275589l0 0c-13.95932 0 -25.275589 -11.316269 -25.275589 -25.275589z" fill-rule="evenodd"/><path stroke="#000000" stroke-width="4.0" stroke-linejoin="round" stroke-linecap="butt" d="m219.34645 197.67717l0 0c0 -13.95932 11.316269 -25.275589 25.275589 -25.275589l0 0c6.7035065 0 13.132446 2.6629486 17.872559 7.4030457c4.740082 4.740097 7.4030457 11.169037 7.4030457 17.872543l0 0c0 13.95932 -11.316284 25.275589 -25.275604 25.275589l0 0c-13.95932 0 -25.275589 -11.316269 -25.275589 -25.275589z" fill-rule="evenodd"/><path fill="#000000" d="m237.09326 203.3503l2.8125 -0.375q0.484375 2.390625 1.640625 3.453125q1.171875 1.046875 2.84375 1.046875q1.984375 0 3.34375 -1.375q1.375 -1.375 1.375 -3.40625q0 -1.9375 -1.265625 -3.1875q-1.265625 -1.265625 -3.21875 -1.265625q-0.796875 0 -1.984375 0.3125l0.3125 -2.46875q0.28125 0.03125 0.453125 0.03125q1.796875 0 3.234375 -0.9375q1.4375 -0.9375 1.4375 -2.890625q0 -1.546875 -1.046875 -2.5625q-1.046875 -1.015625 -2.703125 -1.015625q-1.640625 0 -2.734375 1.03125q-1.09375 1.03125 -1.40625 3.09375l-2.8125 -0.5q0.515625 -2.828125 2.34375 -4.375q1.828125 -1.5625 4.546875 -1.5625q1.875 0 3.453125 0.8125q1.578125 0.796875 2.40625 2.1875q0.84375 1.390625 0.84375 2.953125q0 1.484375 -0.796875 2.703125q-0.796875 1.21875 -2.359375 1.9375q2.03125 0.46875 3.15625 1.953125q1.125 1.46875 1.125 3.6875q0 3.0 -2.1875 5.09375q-2.1875 2.078125 -5.53125 2.078125q-3.015625 0 -5.015625 -1.796875q-1.984375 -1.796875 -2.265625 -4.65625z" fill-rule="nonzero"/><path fill="#ffffff" d="m168.79527 284.2467l0 0c0 -13.95932 11.316269 -25.275574 25.275589 -25.275574l0 0c6.7035065 0 13.132446 2.6629639 17.872543 7.4030457c4.740097 4.740082 7.4030457 11.169037 7.4030457 17.872528l0 0c0 13.959351 -11.316269 25.275604 -25.275589 25.275604l0 0c-13.95932 0 -25.275589 -11.316254 -25.275589 -25.275604z" fill-rule="evenodd"/><path stroke="#000000" stroke-width="4.0" stroke-linejoin="round" stroke-linecap="butt" d="m168.79527 284.2467l0 0c0 -13.95932 11.316269 -25.275574 25.275589 -25.275574l0 0c6.7035065 0 13.132446 2.6629639 17.872543 7.4030457c4.740097 4.740082 7.4030457 11.169037 7.4030457 17.872528l0 0c0 13.959351 -11.316269 25.275604 -25.275589 25.275604l0 0c-13.95932 0 -25.275589 -11.316254 -25.275589 -25.275604z" fill-rule="evenodd"/><path fill="#000000" d="m195.54207 295.9667l0 -5.484375l-9.9375 0l0 -2.578125l10.453125 -14.84375l2.296875 0l0 14.84375l3.09375 0l0 2.578125l-3.09375 0l0 5.484375l-2.8125 0zm0 -8.0625l0 -10.328125l-7.171875 10.328125l7.171875 0z" fill-rule="nonzero"/><path fill="#ffffff" d="m269.89764 284.2467l0 0c0 -13.95932 11.316254 -25.275574 25.275574 -25.275574l0 0c6.7035217 0 13.132446 2.6629639 17.872559 7.4030457c4.740082 4.740082 7.4030457 11.169037 7.4030457 17.872528l0 0c0 13.959351 -11.316284 25.275604 -25.275604 25.275604l0 0c-13.95932 0 -25.275574 -11.316254 -25.275574 -25.275604z" fill-rule="evenodd"/><path stroke="#000000" stroke-width="4.0" stroke-linejoin="round" stroke-linecap="butt" d="m269.89764 284.2467l0 0c0 -13.95932 11.316254 -25.275574 25.275574 -25.275574l0 0c6.7035217 0 13.132446 2.6629639 17.872559 7.4030457c4.740082 4.740082 7.4030457 11.169037 7.4030457 17.872528l0 0c0 13.959351 -11.316284 25.275604 -25.275604 25.275604l0 0c-13.95932 0 -25.275574 -11.316254 -25.275574 -25.275604z" fill-rule="evenodd"/><path fill="#000000" d="m287.8163 276.06046l0 -2.703125l14.828125 0l0 2.1875q-2.1875 2.328125 -4.34375 6.1875q-2.140625 3.859375 -3.3125 7.9375q-0.84375 2.875 -1.078125 6.296875l-2.890625 0q0.046875 -2.703125 1.0625 -6.53125q1.015625 -3.828125 2.90625 -7.375q1.90625 -3.5625 4.046875 -6.0l-11.21875 0z" fill-rule="nonzero"/><path fill="#000000" fill-opacity="0.0" d="m449.00525 197.4042l51.496063 -86.77166" fill-rule="evenodd"/><path stroke="#000000" stroke-width="4.0" stroke-linejoin="round" stroke-linecap="butt" d="m449.00525 197.4042l51.496063 -86.77166" fill-rule="evenodd"/><path fill="#000000" fill-opacity="0.0" d="m500.5013 284.17584l51.496063 -86.77164" fill-rule="evenodd"/><path stroke="#000000" stroke-width="4.0" stroke-linejoin="round" stroke-linecap="butt" d="m500.5013 284.17584l51.496063 -86.77164" fill-rule="evenodd"/><path fill="#000000" fill-opacity="0.0" d="m500.5013 110.632545l51.496063 86.77166" fill-rule="evenodd"/><path stroke="#000000" stroke-width="4.0" stroke-linejoin="round" stroke-linecap="butt" d="m500.5013 110.632545l51.496063 86.77166" fill-rule="evenodd"/><path fill="#000000" fill-opacity="0.0" d="m551.9974 197.4042l51.496033 86.77164" fill-rule="evenodd"/><path stroke="#000000" stroke-width="4.0" stroke-linejoin="round" stroke-linecap="butt" d="m551.9974 197.4042l51.496033 86.77164" fill-rule="evenodd"/><path fill="#000000" fill-opacity="0.0" d="m500.5013 284.17584l69.60629 87.74805" fill-rule="evenodd"/><path stroke="#000000" stroke-width="4.0" stroke-linejoin="round" stroke-linecap="butt" d="m500.5013 284.17584l69.60629 87.74805" fill-rule="evenodd"/><path fill="#000000" fill-opacity="0.0" d="m430.89502 371.9239l69.60629 -87.74805" fill-rule="evenodd"/><path stroke="#000000" stroke-width="4.0" stroke-linejoin="round" stroke-linecap="butt" d="m430.89502 371.9239l69.60629 -87.74805" fill-rule="evenodd"/><path fill="#000000" fill-opacity="0.0" d="m500.5013 375.7349l0 -91.55905" fill-rule="evenodd"/><path stroke="#000000" stroke-width="4.0" stroke-linejoin="round" stroke-linecap="butt" d="m500.5013 375.7349l0 -91.55905" fill-rule="evenodd"/><path fill="#6fa8dc" d="m473.80054 370.81628l0 0c0 -13.95932 11.316254 -25.275604 25.275574 -25.275604l0 0c6.7035217 0 13.132446 2.6629639 17.872559 7.4030457c4.7400513 4.7401123 7.403015 11.169037 7.403015 17.872559l0 0c0 13.95932 -11.316223 25.275574 -25.275574 25.275574l0 0c-13.95932 0 -25.275574 -11.316254 -25.275574 -25.275574z" fill-rule="evenodd"/><path stroke="#000000" stroke-width="4.0" stroke-linejoin="round" stroke-linecap="butt" d="m473.80054 370.81628l0 0c0 -13.95932 11.316254 -25.275604 25.275574 -25.275604l0 0c6.7035217 0 13.132446 2.6629639 17.872559 7.4030457c4.7400513 4.7401123 7.403015 11.169037 7.403015 17.872559l0 0c0 13.95932 -11.316223 25.275574 -25.275574 25.275574l0 0c-13.95932 0 -25.275574 -11.316254 -25.275574 -25.275574z" fill-rule="evenodd"/><path fill="#000000" d="m506.12546 365.2394l-2.796875 0.21875q-0.375 -1.65625 -1.0625 -2.40625q-1.140625 -1.203125 -2.8125 -1.203125q-1.34375 0 -2.359375 0.75q-1.328125 0.96875 -2.09375 2.828125q-0.765625 1.859375 -0.796875 5.296875q1.015625 -1.546875 2.484375 -2.296875q1.46875 -0.75 3.078125 -0.75q2.8125 0 4.78125 2.078125q1.984375 2.0625 1.984375 5.34375q0 2.15625 -0.9375 4.015625q-0.921875 1.84375 -2.546875 2.828125q-1.625 0.984375 -3.6875 0.984375q-3.515625 0 -5.734375 -2.578125q-2.21875 -2.59375 -2.21875 -8.53125q0 -6.640625 2.453125 -9.65625q2.140625 -2.625 5.765625 -2.625q2.703125 0 4.421875 1.515625q1.734375 1.515625 2.078125 4.1875zm-11.484375 9.875q0 1.453125 0.609375 2.78125q0.625 1.328125 1.734375 2.03125q1.109375 0.6875 2.328125 0.6875q1.78125 0 3.0625 -1.4375q1.28125 -1.4375 1.28125 -3.90625q0 -2.375 -1.265625 -3.734375q-1.265625 -1.375 -3.1875 -1.375q-1.90625 0 -3.234375 1.375q-1.328125 1.359375 -1.328125 3.578125z" fill-rule="nonzero"/><path fill="#ffffff" d="m544.1575 370.81628l0 0c0 -13.95932 11.316284 -25.275604 25.275574 -25.275604l0 0c6.7035522 0 13.132446 2.6629639 17.872559 7.4030457c4.7401123 4.7401123 7.403076 11.169037 7.403076 17.872559l0 0c0 13.95932 -11.316284 25.275574 -25.275635 25.275574l0 0c-13.95929 0 -25.275574 -11.316254 -25.275574 -25.275574z" fill-rule="evenodd"/><path stroke="#000000" stroke-width="4.0" stroke-linejoin="round" stroke-linecap="butt" d="m544.1575 370.81628l0 0c0 -13.95932 11.316284 -25.275604 25.275574 -25.275604l0 0c6.7035522 0 13.132446 2.6629639 17.872559 7.4030457c4.7401123 4.7401123 7.403076 11.169037 7.403076 17.872559l0 0c0 13.95932 -11.316284 25.275574 -25.275635 25.275574l0 0c-13.95929 0 -25.275574 -11.316254 -25.275574 -25.275574z" fill-rule="evenodd"/><path fill="#000000" d="m566.2168 370.1144q-1.75 -0.640625 -2.59375 -1.828125q-0.84375 -1.1875 -0.84375 -2.84375q0 -2.5 1.796875 -4.203125q1.796875 -1.703125 4.78125 -1.703125q3.0 0 4.828125 1.75q1.828125 1.734375 1.828125 4.234375q0 1.59375 -0.84375 2.78125q-0.828125 1.171875 -2.53125 1.8125q2.109375 0.6875 3.203125 2.21875q1.109375 1.53125 1.109375 3.65625q0 2.9375 -2.078125 4.9375q-2.078125 2.0 -5.46875 2.0q-3.390625 0 -5.46875 -2.0q-2.078125 -2.015625 -2.078125 -5.015625q0 -2.234375 1.125 -3.734375q1.140625 -1.515625 3.234375 -2.0625zm-0.5625 -4.765625q0 1.625 1.046875 2.65625q1.046875 1.03125 2.71875 1.03125q1.625 0 2.65625 -1.015625q1.046875 -1.03125 1.046875 -2.515625q0 -1.546875 -1.078125 -2.59375q-1.0625 -1.0625 -2.65625 -1.0625q-1.609375 0 -2.671875 1.03125q-1.0625 1.03125 -1.0625 2.46875zm-0.90625 10.578125q0 1.203125 0.5625 2.328125q0.578125 1.125 1.703125 1.75q1.125 0.609375 2.421875 0.609375q2.015625 0 3.328125 -1.296875q1.3125 -1.296875 1.3125 -3.296875q0 -2.03125 -1.359375 -3.359375q-1.34375 -1.328125 -3.375 -1.328125q-1.984375 0 -3.296875 1.3125q-1.296875 1.3125 -1.296875 3.28125z" fill-rule="nonzero"/><path fill="#ffffff" d="m403.44357 370.81628l0 0c0 -13.95932 11.316254 -25.275604 25.275574 -25.275604l0 0c6.7035217 0 13.132477 2.6629639 17.872559 7.4030457c4.740082 4.7401123 7.4030457 11.169037 7.4030457 17.872559l0 0c0 13.95932 -11.316254 25.275574 -25.275604 25.275574l0 0c-13.95932 0 -25.275574 -11.316254 -25.275574 -25.275574z" fill-rule="evenodd"/><path stroke="#000000" stroke-width="4.0" stroke-linejoin="round" stroke-linecap="butt" d="m403.44357 370.81628l0 0c0 -13.95932 11.316254 -25.275604 25.275574 -25.275604l0 0c6.7035217 0 13.132477 2.6629639 17.872559 7.4030457c4.740082 4.7401123 7.4030457 11.169037 7.4030457 17.872559l0 0c0 13.95932 -11.316254 25.275574 -25.275604 25.275574l0 0c-13.95932 0 -25.275574 -11.316254 -25.275574 -25.275574z" fill-rule="evenodd"/><path fill="#000000" d="m421.17474 376.5363l2.953125 -0.25q0.328125 2.15625 1.515625 3.25q1.203125 1.078125 2.890625 1.078125q2.03125 0 3.4375 -1.53125q1.40625 -1.53125 1.40625 -4.0625q0 -2.40625 -1.359375 -3.796875q-1.34375 -1.390625 -3.53125 -1.390625q-1.359375 0 -2.453125 0.625q-1.09375 0.609375 -1.71875 1.59375l-2.640625 -0.34375l2.21875 -11.765625l11.390625 0l0 2.6875l-9.140625 0l-1.234375 6.15625q2.0625 -1.4375 4.328125 -1.4375q3.0 0 5.0625 2.078125q2.0625 2.078125 2.0625 5.34375q0 3.109375 -1.8125 5.375q-2.203125 2.78125 -6.015625 2.78125q-3.125 0 -5.109375 -1.75q-1.96875 -1.75 -2.25 -4.640625z" fill-rule="nonzero"/><path fill="#674ea7" d="m473.80054 111.10761l0 0c0 -13.959328 11.316254 -25.275589 25.275574 -25.275589l0 0c6.7035217 0 13.132446 2.6629562 17.872559 7.4030457c4.7400513 4.740097 7.403015 11.169037 7.403015 17.872543l0 0c0 13.95932 -11.316223 25.275597 -25.275574 25.275597l0 0c-13.95932 0 -25.275574 -11.316277 -25.275574 -25.275597z" fill-rule="evenodd"/><path stroke="#000000" stroke-width="4.0" stroke-linejoin="round" stroke-linecap="butt" d="m473.80054 111.10761l0 0c0 -13.959328 11.316254 -25.275589 25.275574 -25.275589l0 0c6.7035217 0 13.132446 2.6629562 17.872559 7.4030457c4.7400513 4.740097 7.403015 11.169037 7.403015 17.872543l0 0c0 13.95932 -11.316223 25.275597 -25.275574 25.275597l0 0c-13.95932 0 -25.275574 -11.316277 -25.275574 -25.275597z" fill-rule="evenodd"/><path fill="#000000" d="m502.12546 122.827614l-2.8125 0l0 -17.921875q-1.015625 0.96875 -2.671875 1.9375q-1.640625 0.96875 -2.953125 1.453125l0 -2.71875q2.359375 -1.109375 4.125 -2.6875q1.765625 -1.578125 2.5 -3.0625l1.8125 0l0 23.0z" fill-rule="nonzero"/><path fill="#ffffff" d="m423.24933 197.67717l0 0c0 -13.95932 11.316284 -25.275589 25.275604 -25.275589l0 0c6.703491 0 13.132446 2.6629486 17.872528 7.4030457c4.7401123 4.740097 7.403076 11.169037 7.403076 17.872543l0 0c0 13.95932 -11.316284 25.275589 -25.275604 25.275589l0 0c-13.95932 0 -25.275604 -11.316269 -25.275604 -25.275589z" fill-rule="evenodd"/><path stroke="#000000" stroke-width="4.0" stroke-linejoin="round" stroke-linecap="butt" d="m423.24933 197.67717l0 0c0 -13.95932 11.316284 -25.275589 25.275604 -25.275589l0 0c6.703491 0 13.132446 2.6629486 17.872528 7.4030457c4.7401123 4.740097 7.403076 11.169037 7.403076 17.872543l0 0c0 13.95932 -11.316284 25.275589 -25.275604 25.275589l0 0c-13.95932 0 -25.275604 -11.316269 -25.275604 -25.275589z" fill-rule="evenodd"/><path fill="#000000" d="m455.76178 206.69405l0 2.703125l-15.140625 0q-0.03125 -1.015625 0.328125 -1.953125q0.578125 -1.546875 1.84375 -3.046875q1.28125 -1.5 3.6875 -3.46875q3.734375 -3.0625 5.046875 -4.84375q1.3125 -1.796875 1.3125 -3.390625q0 -1.671875 -1.203125 -2.8125q-1.1875 -1.15625 -3.109375 -1.15625q-2.03125 0 -3.25 1.21875q-1.21875 1.21875 -1.234375 3.375l-2.890625 -0.296875q0.296875 -3.234375 2.234375 -4.921875q1.9375 -1.703125 5.203125 -1.703125q3.296875 0 5.21875 1.828125q1.921875 1.828125 1.921875 4.53125q0 1.375 -0.5625 2.703125q-0.5625 1.328125 -1.875 2.796875q-1.296875 1.46875 -4.328125 4.03125q-2.53125 2.125 -3.25 2.890625q-0.71875 0.75 -1.1875 1.515625l11.234375 0z" fill-rule="nonzero"/><path fill="#ffffff" d="m524.3517 197.67717l0 0c0 -13.95932 11.316284 -25.275589 25.275635 -25.275589l0 0c6.703491 0 13.132446 2.6629486 17.872498 7.4030457c4.7401123 4.740097 7.403076 11.169037 7.403076 17.872543l0 0c0 13.95932 -11.316284 25.275589 -25.275574 25.275589l0 0c-13.959351 0 -25.275635 -11.316269 -25.275635 -25.275589z" fill-rule="evenodd"/><path stroke="#000000" stroke-width="4.0" stroke-linejoin="round" stroke-linecap="butt" d="m524.3517 197.67717l0 0c0 -13.95932 11.316284 -25.275589 25.275635 -25.275589l0 0c6.703491 0 13.132446 2.6629486 17.872498 7.4030457c4.7401123 4.740097 7.403076 11.169037 7.403076 17.872543l0 0c0 13.95932 -11.316284 25.275589 -25.275574 25.275589l0 0c-13.959351 0 -25.275635 -11.316269 -25.275635 -25.275589z" fill-rule="evenodd"/><path fill="#000000" d="m542.0985 203.3503l2.8125 -0.375q0.484375 2.390625 1.640625 3.453125q1.171875 1.046875 2.84375 1.046875q1.984375 0 3.34375 -1.375q1.375 -1.375 1.375 -3.40625q0 -1.9375 -1.265625 -3.1875q-1.265625 -1.265625 -3.21875 -1.265625q-0.796875 0 -1.984375 0.3125l0.3125 -2.46875q0.28125 0.03125 0.453125 0.03125q1.796875 0 3.234375 -0.9375q1.4375 -0.9375 1.4375 -2.890625q0 -1.546875 -1.046875 -2.5625q-1.046875 -1.015625 -2.703125 -1.015625q-1.640625 0 -2.734375 1.03125q-1.09375 1.03125 -1.40625 3.09375l-2.8125 -0.5q0.515625 -2.828125 2.34375 -4.375q1.828125 -1.5625 4.546875 -1.5625q1.875 0 3.453125 0.8125q1.578125 0.796875 2.40625 2.1875q0.84375 1.390625 0.84375 2.953125q0 1.484375 -0.796875 2.703125q-0.796875 1.21875 -2.359375 1.9375q2.03125 0.46875 3.15625 1.953125q1.125 1.46875 1.125 3.6875q0 3.0 -2.1875 5.09375q-2.1875 2.078125 -5.53125 2.078125q-3.015625 0 -5.015625 -1.796875q-1.984375 -1.796875 -2.265625 -4.65625z" fill-rule="nonzero"/><path fill="#ffffff" d="m473.80054 284.2467l0 0c0 -13.95932 11.316254 -25.275574 25.275574 -25.275574l0 0c6.7035217 0 13.132446 2.6629639 17.872559 7.4030457c4.7400513 4.740082 7.403015 11.169037 7.403015 17.872528l0 0c0 13.959351 -11.316223 25.275604 -25.275574 25.275604l0 0c-13.95932 0 -25.275574 -11.316254 -25.275574 -25.275604z" fill-rule="evenodd"/><path stroke="#000000" stroke-width="4.0" stroke-linejoin="round" stroke-linecap="butt" d="m473.80054 284.2467l0 0c0 -13.95932 11.316254 -25.275574 25.275574 -25.275574l0 0c6.7035217 0 13.132446 2.6629639 17.872559 7.4030457c4.7400513 4.740082 7.403015 11.169037 7.403015 17.872528l0 0c0 13.959351 -11.316223 25.275604 -25.275574 25.275604l0 0c-13.95932 0 -25.275574 -11.316254 -25.275574 -25.275604z" fill-rule="evenodd"/><path fill="#000000" d="m500.54733 295.9667l0 -5.484375l-9.9375 0l0 -2.578125l10.453125 -14.84375l2.296875 0l0 14.84375l3.09375 0l0 2.578125l-3.09375 0l0 5.484375l-2.8125 0zm0 -8.0625l0 -10.328125l-7.171875 10.328125l7.171875 0z" fill-rule="nonzero"/><path fill="#e06666" d="m574.9029 284.2467l0 0c0 -13.95932 11.316284 -25.275574 25.275574 -25.275574l0 0c6.703491 0 13.132446 2.6629639 17.872559 7.4030457c4.7401123 4.740082 7.403015 11.169037 7.403015 17.872528l0 0c0 13.959351 -11.316223 25.275604 -25.275574 25.275604l0 0c-13.95929 0 -25.275574 -11.316254 -25.275574 -25.275604z" fill-rule="evenodd"/><path stroke="#000000" stroke-width="4.0" stroke-linejoin="round" stroke-linecap="butt" d="m574.9029 284.2467l0 0c0 -13.95932 11.316284 -25.275574 25.275574 -25.275574l0 0c6.703491 0 13.132446 2.6629639 17.872559 7.4030457c4.7401123 4.740082 7.403015 11.169037 7.403015 17.872528l0 0c0 13.959351 -11.316223 25.275604 -25.275574 25.275604l0 0c-13.95929 0 -25.275574 -11.316254 -25.275574 -25.275604z" fill-rule="evenodd"/><path fill="#000000" d="m592.82153 276.06046l0 -2.703125l14.828125 0l0 2.1875q-2.1875 2.328125 -4.34375 6.1875q-2.140625 3.859375 -3.3125 7.9375q-0.84375 2.875 -1.078125 6.296875l-2.890625 0q0.046875 -2.703125 1.0625 -6.53125q1.015625 -3.828125 2.90625 -7.375q1.90625 -3.5625 4.046875 -6.0l-11.21875 0z" fill-rule="nonzero"/></g></svg>