<svg xmlns="http://www.w3.org/2000/svg" xmlns:xlink="http://www.w3.org/1999/xlink" xmlns:lucid="lucid" width="832" height="413"><g transform="translate(-123 -428)" lucid:page-tab-id="0_0"><path d="M0 0h1870.87v1322.83H0z" fill="#fff"/><path d="M801 801.25a.25.25 0 0 1-.25-.25V502a.25.25 0 0 1 .25-.25.25.25 0 0 1 .25.25v299a.25.25 0 0 1-.25.25zM601 799.25a.25.25 0 0 1-.25-.25V500a.25.25 0 0 1 .25-.25.25.25 0 0 1 .25.25v299a.25.25 0 0 1-.25.25zM501 799.25a.25.25 0 0 1-.25-.25V500a.25.25 0 0 1 .25-.25.25.25 0 0 1 .25.25v299a.25.25 0 0 1-.25.25zM399 799.25a.25.25 0 0 1-.25-.25V500a.25.25 0 0 1 .25-.25.25.25 0 0 1 .25.25v299a.25.25 0 0 1-.25.25zM701 801.25a.25.25 0 0 1-.25-.25V502a.25.25 0 0 1 .25-.25.25.25 0 0 1 .25.25v299a.25.25 0 0 1-.25.25z" stroke="#ced4db" stroke-width=".5" fill="none"/><path d="M180 452h240v60H180z" fill="none"/><use xlink:href="#a" transform="matrix(1,0,0,1,180,452) translate(113.82716049382717 34.44444444444444)"/><path d="M280 452h240v60H280z" fill="none"/><use xlink:href="#b" transform="matrix(1,0,0,1,280,452) translate(113.82716049382717 34.44444444444444)"/><path d="M380 452h240v60H380z" fill="none"/><use xlink:href="#c" transform="matrix(1,0,0,1,380,452) translate(113.82716049382717 34.44444444444444)"/><path d="M480 452h240v60H480z" fill="none"/><use xlink:href="#d" transform="matrix(1,0,0,1,480,452) translate(113.82716049382717 34.44444444444444)"/><path d="M580 452h240v60H580z" fill="none"/><use xlink:href="#e" transform="matrix(1,0,0,1,580,452) translate(113.82716049382717 34.44444444444444)"/><path d="M680 452h240v60H680z" fill="none"/><use xlink:href="#f" transform="matrix(1,0,0,1,680,452) translate(113.82716049382717 34.44444444444444)"/><path d="M780 452h240v60H780z" fill="none"/><use xlink:href="#g" transform="matrix(1,0,0,1,780,452) translate(113.82716049382717 34.44444444444444)"/><path d="M600 506a6 6 0 0 1 6-6h189.5a6 6 0 0 1 6 6v68a6 6 0 0 1-6 6H606a6 6 0 0 1-6-6z" stroke="#fff" fill="#039be5"/><path d="M399 606a6 6 0 0 1 6-6h190.5a6 6 0 0 1 6 6v57.3a6 6 0 0 1-6 6H405a6 6 0 0 1-6-6z" stroke="#fff" fill="#9e69af"/><path d="M500 626a6 6 0 0 1 6-6h389.5a6 6 0 0 1 6 6v60.44a6 6 0 0 1-6 6H506a6 6 0 0 1-6-6z" stroke="#fff" fill="#009688"/><path d="M300 706a6 6 0 0 1 6-6h88a6 6 0 0 1 6 6v68a6 6 0 0 1-6 6h-88a6 6 0 0 1-6-6z" stroke="#fff" fill="#c0ca33"/><path d="M600 706a6 6 0 0 1 6-6h289.5a6 6 0 0 1 6 6v68a6 6 0 0 1-6 6H606a6 6 0 0 1-6-6z" stroke="#fff" fill="#e67c73"/><path d="M100 506a6 6 0 0 1 6-6h228a6 6 0 0 1 6 6v88a6 6 0 0 1-6 6H106a6 6 0 0 1-6-6z" stroke="#000" stroke-opacity="0" fill="#fff" fill-opacity="0"/><use xlink:href="#h" transform="matrix(1,0,0,1,105,505) translate(54.53703703703703 48.71527777777778)"/><use xlink:href="#i" transform="matrix(1,0,0,1,105,505) translate(107.56172839506172 48.71527777777778)"/><use xlink:href="#j" transform="matrix(1,0,0,1,105,505) translate(163.1172839506173 48.71527777777778)"/><path d="M100 606a6 6 0 0 1 6-6h228a6 6 0 0 1 6 6v88a6 6 0 0 1-6 6H106a6 6 0 0 1-6-6z" stroke="#000" stroke-opacity="0" fill="#fff" fill-opacity="0"/><use xlink:href="#h" transform="matrix(1,0,0,1,105,605) translate(54.53703703703703 48.71527777777778)"/><use xlink:href="#i" transform="matrix(1,0,0,1,105,605) translate(107.56172839506172 48.71527777777778)"/><use xlink:href="#k" transform="matrix(1,0,0,1,105,605) translate(163.1172839506173 48.71527777777778)"/><path d="M100 706a6 6 0 0 1 6-6h228a6 6 0 0 1 6 6v88a6 6 0 0 1-6 6H106a6 6 0 0 1-6-6z" stroke="#000" stroke-opacity="0" fill="#fff" fill-opacity="0"/><use xlink:href="#h" transform="matrix(1,0,0,1,105,705) translate(54.53703703703703 48.71527777777778)"/><use xlink:href="#i" transform="matrix(1,0,0,1,105,705) translate(107.56172839506172 48.71527777777778)"/><use xlink:href="#l" transform="matrix(1,0,0,1,105,705) translate(163.1172839506173 48.71527777777778)"/><path d="M300.25 500.5a.25.25 0 0 1 .25-.25h599a.25.25 0 0 1 .25.25.25.25 0 0 1-.25.25h-599a.25.25 0 0 1-.25-.25zM300.25 800.5a.25.25 0 0 1 .25-.25h599a.25.25 0 0 1 .25.25.25.25 0 0 1-.25.25h-599a.25.25 0 0 1-.25-.25zM300.25 600.5a.25.25 0 0 1 .25-.25h599a.25.25 0 0 1 .25.25.25.25 0 0 1-.25.25h-599a.25.25 0 0 1-.25-.25zM300.25 700.5a.25.25 0 0 1 .25-.25h599a.25.25 0 0 1 .25.25.25.25 0 0 1-.25.25h-599a.25.25 0 0 1-.25-.25zM901 799.25a.25.25 0 0 1-.25-.25V500a.25.25 0 0 1 .25-.25.25.25 0 0 1 .25.25v299a.25.25 0 0 1-.25.25z" stroke="#ced4db" stroke-width=".5" fill="none"/><path d="M301 799.25a.25.25 0 0 1-.25-.25V500a.25.25 0 0 1 .25-.25.25.25 0 0 1 .25.25v299a.25.25 0 0 1-.25.25z" stroke="#ced4db" stroke-width=".5" fill="none"/><path d="M604.72 509.94a6 6 0 0 1 6-6h228a6 6 0 0 1 6 6v48a6 6 0 0 1-6 6h-228a6 6 0 0 1-6-6z" stroke="#000" stroke-opacity="0" fill="#fff" fill-opacity="0"/><use xlink:href="#m" transform="matrix(1,0,0,1,609.724409448819,508.93700787401576) translate(0 12.444444444444443)"/><use xlink:href="#n" transform="matrix(1,0,0,1,609.724409448819,508.93700787401576) translate(59.5432098765432 12.444444444444443)"/><path d="M403.15 610.1a6 6 0 0 1 6-6h228a6 6 0 0 1 6 6v48a6 6 0 0 1-6 6h-228a6 6 0 0 1-6-6z" stroke="#000" stroke-opacity="0" fill="#fff" fill-opacity="0"/><use xlink:href="#m" transform="matrix(1,0,0,1,408.1496062992126,609.0944881889764) translate(0 12.444444444444443)"/><use xlink:href="#o" transform="matrix(1,0,0,1,408.1496062992126,609.0944881889764) translate(59.5432098765432 12.444444444444443)"/><path d="M504.57 629.62a6 6 0 0 1 6-6h228a6 6 0 0 1 6 6v48a6 6 0 0 1-6 6h-228a6 6 0 0 1-6-6z" stroke="#000" stroke-opacity="0" fill="#fff" fill-opacity="0"/><g><use xlink:href="#m" transform="matrix(1,0,0,1,509.5669291338583,628.6220472440946) translate(0 12.444444444444443)"/><use xlink:href="#p" transform="matrix(1,0,0,1,509.5669291338583,628.6220472440946) translate(59.5432098765432 12.444444444444443)"/></g><path d="M304.25 709.62a6 6 0 0 1 6-6h228a6 6 0 0 1 6 6v48a6 6 0 0 1-6 6h-228a6 6 0 0 1-6-6z" stroke="#000" stroke-opacity="0" fill="#fff" fill-opacity="0"/><g><use xlink:href="#m" transform="matrix(1,0,0,1,309.251968503937,708.6220472440946) translate(0 12.444444444444443)"/><use xlink:href="#q" transform="matrix(1,0,0,1,309.251968503937,708.6220472440946) translate(59.5432098765432 12.444444444444443)"/></g><path d="M604.72 709.62a6 6 0 0 1 6-6h228a6 6 0 0 1 6 6v48a6 6 0 0 1-6 6h-228a6 6 0 0 1-6-6z" stroke="#000" stroke-opacity="0" fill="#fff" fill-opacity="0"/><g><use xlink:href="#m" transform="matrix(1,0,0,1,609.724409448819,708.6220472440946) translate(0 12.444444444444443)"/><use xlink:href="#r" transform="matrix(1,0,0,1,609.724409448819,708.6220472440946) translate(59.5432098765432 12.444444444444443)"/></g><defs><path fill="#6f7681" d="M101-251c68 0 85 55 85 127S166 4 100 4C33 4 14-52 14-124c0-73 17-127 87-127zm-1 229c47 0 54-49 54-102s-4-102-53-102c-51 0-55 48-55 102 0 53 5 102 54 102" id="s"/><use transform="matrix(0.06172839506172839,0,0,0.06172839506172839,0,0)" xlink:href="#s" id="a"/><path fill="#6f7681" d="M27 0v-27h64v-190l-56 39v-29l58-41h29v221h61V0H27" id="t"/><use transform="matrix(0.06172839506172839,0,0,0.06172839506172839,0,0)" xlink:href="#t" id="b"/><path fill="#6f7681" d="M101-251c82-7 93 87 43 132L82-64C71-53 59-42 53-27h129V0H18c2-99 128-94 128-182 0-28-16-43-45-43s-46 15-49 41l-32-3c6-41 34-60 81-64" id="u"/><use transform="matrix(0.06172839506172839,0,0,0.06172839506172839,0,0)" xlink:href="#u" id="c"/><path fill="#6f7681" d="M126-127c33 6 58 20 58 59 0 88-139 92-164 29-3-8-5-16-6-25l32-3c6 27 21 44 54 44 32 0 52-15 52-46 0-38-36-46-79-43v-28c39 1 72-4 72-42 0-27-17-43-46-43-28 0-47 15-49 41l-32-3c6-42 35-63 81-64 48-1 79 21 79 65 0 36-21 52-52 59" id="v"/><use transform="matrix(0.06172839506172839,0,0,0.06172839506172839,0,0)" xlink:href="#v" id="d"/><path fill="#6f7681" d="M155-56V0h-30v-56H8v-25l114-167h33v167h35v25h-35zm-30-156c-27 46-58 90-88 131h88v-131" id="w"/><use transform="matrix(0.06172839506172839,0,0,0.06172839506172839,0,0)" xlink:href="#w" id="e"/><path fill="#6f7681" d="M54-142c48-35 137-8 131 61C196 18 31 33 14-55l32-4c7 23 22 37 52 37 35-1 51-22 54-58 4-55-73-65-99-34H22l8-134h141v27H59" id="x"/><use transform="matrix(0.06172839506172839,0,0,0.06172839506172839,0,0)" xlink:href="#x" id="f"/><path fill="#6f7681" d="M110-160c48 1 74 30 74 79 0 53-28 85-80 85-65 0-83-55-86-122-5-90 50-162 133-122 14 7 22 21 27 39l-31 6c-5-40-67-38-82-6-9 19-15 44-15 74 11-20 30-34 60-33zm-7 138c34 0 49-23 49-58s-16-56-50-56c-29 0-50 16-49 49 1 36 15 65 50 65" id="y"/><use transform="matrix(0.06172839506172839,0,0,0.06172839506172839,0,0)" xlink:href="#y" id="g"/><path fill="#6f7681" d="M127-220V0H93v-220H8v-28h204v28h-85" id="z"/><path fill="#6f7681" d="M100-194c63 0 86 42 84 106H49c0 40 14 67 53 68 26 1 43-12 49-29l28 8c-11 28-37 45-77 45C44 4 14-33 15-96c1-61 26-98 85-98zm52 81c6-60-76-77-97-28-3 7-6 17-6 28h103" id="A"/><path fill="#6f7681" d="M96-169c-40 0-48 33-48 73s9 75 48 75c24 0 41-14 43-38l32 2c-6 37-31 61-74 61-59 0-76-41-82-99-10-93 101-131 147-64 4 7 5 14 7 22l-32 3c-4-21-16-35-41-35" id="B"/><path fill="#6f7681" d="M106-169C34-169 62-67 57 0H25v-261h32l-1 103c12-21 28-36 61-36 89 0 53 116 60 194h-32v-121c2-32-8-49-39-48" id="C"/><g id="h"><use transform="matrix(0.06172839506172839,0,0,0.06172839506172839,0,0)" xlink:href="#z"/><use transform="matrix(0.06172839506172839,0,0,0.06172839506172839,11.049382716049381,0)" xlink:href="#A"/><use transform="matrix(0.06172839506172839,0,0,0.06172839506172839,23.39506172839506,0)" xlink:href="#B"/><use transform="matrix(0.06172839506172839,0,0,0.06172839506172839,34.50617283950617,0)" xlink:href="#C"/></g><path fill="#6f7681" d="M30 0v-248h33v221h125V0H30" id="D"/><path fill="#6f7681" d="M141-36C126-15 110 5 73 4 37 3 15-17 15-53c-1-64 63-63 125-63 3-35-9-54-41-54-24 1-41 7-42 31l-33-3c5-37 33-52 76-52 45 0 72 20 72 64v82c-1 20 7 32 28 27v20c-31 9-61-2-59-35zM48-53c0 20 12 33 32 33 41-3 63-29 60-74-43 2-92-5-92 41" id="E"/><path fill="#6f7681" d="M85-194c31 0 48 13 60 33l-1-100h32l1 261h-30c-2-10 0-23-3-31C134-8 116 4 85 4 32 4 16-35 15-94c0-66 23-100 70-100zm9 24c-40 0-46 34-46 75 0 40 6 74 45 74 42 0 51-32 51-76 0-42-9-74-50-73" id="F"/><g id="i"><use transform="matrix(0.06172839506172839,0,0,0.06172839506172839,0,0)" xlink:href="#D"/><use transform="matrix(0.06172839506172839,0,0,0.06172839506172839,12.345679012345679,0)" xlink:href="#A"/><use transform="matrix(0.06172839506172839,0,0,0.06172839506172839,24.691358024691358,0)" xlink:href="#E"/><use transform="matrix(0.06172839506172839,0,0,0.06172839506172839,37.03703703703704,0)" xlink:href="#F"/></g><use transform="matrix(0.06172839506172839,0,0,0.06172839506172839,0,0)" xlink:href="#t" id="j"/><use transform="matrix(0.06172839506172839,0,0,0.06172839506172839,0,0)" xlink:href="#u" id="k"/><use transform="matrix(0.06172839506172839,0,0,0.06172839506172839,0,0)" xlink:href="#v" id="l"/><path fill="#fff" d="M240 0l2-218c-23 76-54 145-80 218h-23L58-218 59 0H30v-248h44l77 211c21-75 51-140 76-211h43V0h-30" id="G"/><path fill="#fff" d="M100-194c63 0 86 42 84 106H49c0 40 14 67 53 68 26 1 43-12 49-29l28 8c-11 28-37 45-77 45C44 4 14-33 15-96c1-61 26-98 85-98zm52 81c6-60-76-77-97-28-3 7-6 17-6 28h103" id="H"/><path fill="#fff" d="M59-47c-2 24 18 29 38 22v24C64 9 27 4 27-40v-127H5v-23h24l9-43h21v43h35v23H59v120" id="I"/><path fill="#fff" d="M24-231v-30h32v30H24zM24 0v-190h32V0H24" id="J"/><path fill="#fff" d="M117-194c89-4 53 116 60 194h-32v-121c0-31-8-49-39-48C34-167 62-67 57 0H25l-1-190h30c1 10-1 24 2 32 11-22 29-35 61-36" id="K"/><path fill="#fff" d="M177-190C167-65 218 103 67 71c-23-6-38-20-44-43l32-5c15 47 100 32 89-28v-30C133-14 115 1 83 1 29 1 15-40 15-95c0-56 16-97 71-98 29-1 48 16 59 35 1-10 0-23 2-32h30zM94-22c36 0 50-32 50-73 0-42-14-75-50-75-39 0-46 34-46 75s6 73 46 73" id="L"/><g id="m"><use transform="matrix(0.04320987654320987,0,0,0.04320987654320987,0,0)" xlink:href="#G"/><use transform="matrix(0.04320987654320987,0,0,0.04320987654320987,12.91975308641975,0)" xlink:href="#H"/><use transform="matrix(0.04320987654320987,0,0,0.04320987654320987,21.56172839506172,0)" xlink:href="#H"/><use transform="matrix(0.04320987654320987,0,0,0.04320987654320987,30.2037037037037,0)" xlink:href="#I"/><use transform="matrix(0.04320987654320987,0,0,0.04320987654320987,34.52469135802468,0)" xlink:href="#J"/><use transform="matrix(0.04320987654320987,0,0,0.04320987654320987,37.938271604938265,0)" xlink:href="#K"/><use transform="matrix(0.04320987654320987,0,0,0.04320987654320987,46.58024691358024,0)" xlink:href="#L"/></g><path fill="#fff" d="M27 0v-27h64v-190l-56 39v-29l58-41h29v221h61V0H27" id="M"/><use transform="matrix(0.04320987654320987,0,0,0.04320987654320987,0,0)" xlink:href="#M" id="n"/><path fill="#fff" d="M101-251c82-7 93 87 43 132L82-64C71-53 59-42 53-27h129V0H18c2-99 128-94 128-182 0-28-16-43-45-43s-46 15-49 41l-32-3c6-41 34-60 81-64" id="N"/><use transform="matrix(0.04320987654320987,0,0,0.04320987654320987,0,0)" xlink:href="#N" id="o"/><path fill="#fff" d="M126-127c33 6 58 20 58 59 0 88-139 92-164 29-3-8-5-16-6-25l32-3c6 27 21 44 54 44 32 0 52-15 52-46 0-38-36-46-79-43v-28c39 1 72-4 72-42 0-27-17-43-46-43-28 0-47 15-49 41l-32-3c6-42 35-63 81-64 48-1 79 21 79 65 0 36-21 52-52 59" id="O"/><use transform="matrix(0.04320987654320987,0,0,0.04320987654320987,0,0)" xlink:href="#O" id="p"/><path fill="#fff" d="M155-56V0h-30v-56H8v-25l114-167h33v167h35v25h-35zm-30-156c-27 46-58 90-88 131h88v-131" id="P"/><use transform="matrix(0.04320987654320987,0,0,0.04320987654320987,0,0)" xlink:href="#P" id="q"/><path fill="#fff" d="M54-142c48-35 137-8 131 61C196 18 31 33 14-55l32-4c7 23 22 37 52 37 35-1 51-22 54-58 4-55-73-65-99-34H22l8-134h141v27H59" id="Q"/><use transform="matrix(0.04320987654320987,0,0,0.04320987654320987,0,0)" xlink:href="#Q" id="r"/></defs></g></svg>