<!DOCTYPE svg PUBLIC "-//W3C//DTD SVG 1.1//EN" "http://www.w3.org/Graphics/SVG/1.1/DTD/svg11.dtd">
<svg version="1.1" xmlns="http://www.w3.org/2000/svg" xmlns:xlink="http://www.w3.org/1999/xlink" xml:space="preserve" width="962" height="202" viewBox="-124 -154 962 202">
<polygon points="-84,0 -41,0 -49,-8 -49,8 -41,0" fill="#000000" stroke="#000000" stroke-width="1" />
<line x1="0" y1="0" x2="57" y2="-57" stroke-width="4" stroke="#6200ee" />
<line x1="114" y1="-57" x2="627" y2="-114" stroke-width="4" stroke="#03dac5" />
<line x1="456" y1="-114" x2="798" y2="-114" stroke-width="4" stroke="#ff0000" />
<line x1="57" y1="-57" x2="114" y2="-57" stroke-width="4" stroke="#000000" stroke-dasharray="5 5"/>
<line x1="627" y1="-114" x2="798" y2="-114" stroke-width="4" stroke="#000000" stroke-dasharray="5 5"/>
<line x1="456" y1="-114" x2="627" y2="-114" stroke-width="4" stroke="#000000" stroke-dasharray="5 5"/>
<line x1="114" y1="-57" x2="171" y2="-57" stroke-width="4" stroke="#000000" stroke-dasharray="5 5"/>
<circle cx="0" cy="0" r="20" stroke-width="4" fill="#ffffff" stroke="#6200ee" />
<text x="0" y="0" font-size="20" text-anchor="middle" dominant-baseline="central" fill="#000000">1</text>
<circle cx="57" cy="-57" r="20" stroke-width="4" fill="#ffffff" stroke="#6200ee" />
<text x="57" y="-57" font-size="20" text-anchor="middle" dominant-baseline="central" fill="#000000">2</text>
<circle cx="114" cy="-57" r="20" stroke-width="4" fill="#ffffff" stroke="#03dac5" />
<text x="114" y="-57" font-size="20" text-anchor="middle" dominant-baseline="central" fill="#000000">3</text>
<circle cx="171" cy="-57" r="20" stroke-width="4" fill="#ffffff" stroke="#000000" />
<text x="171" y="-57" font-size="20" text-anchor="middle" dominant-baseline="central" fill="#000000">4</text>
<circle cx="456" cy="-114" r="20" stroke-width="4" fill="#ffffff" stroke="#ff0000" />
<text x="456" y="-114" font-size="20" text-anchor="middle" dominant-baseline="central" fill="#000000">5</text>
<circle cx="627" cy="-114" r="20" stroke-width="4" fill="#ffffff" stroke="#03dac5" />
<text x="627" y="-114" font-size="20" text-anchor="middle" dominant-baseline="central" fill="#000000">6</text>
<circle cx="798" cy="-114" r="20" stroke-width="4" fill="#ffffff" stroke="#ff0000" />
<text x="798" y="-114" font-size="20" text-anchor="middle" dominant-baseline="central" fill="#000000">7</text>
</svg>