<!DOCTYPE svg PUBLIC "-//W3C//DTD SVG 1.1//EN" "http://www.w3.org/Graphics/SVG/1.1/DTD/svg11.dtd">
<svg version="1.1" xmlns="http://www.w3.org/2000/svg" xmlns:xlink="http://www.w3.org/1999/xlink" xml:space="preserve" width="396" height="396" viewBox="-198 -198 396 396">
<line x1="-100.0" y1="1.2246467991473532e-14" x2="-90.0" y2="1.1021821192326179e-14" stroke-width="2.2" stroke="#000000"/>
<text x="-70.0" y="8.572527594031473e-15" font-size="33.0" text-anchor="middle" dominant-baseline="central" fill="#000000">0</text>
<line x1="100.0" y1="-2.4492935982947064e-14" x2="90.0" y2="-2.2043642384652358e-14" stroke-width="2.2" stroke="#000000"/>
<text x="70.0" y="-1.7145055188062946e-14" font-size="33.0" text-anchor="middle" dominant-baseline="central" fill="#000000">1</text>
<line x1="-1.8369701987210297e-14" y1="-100.0" x2="-2.424800662311759e-14" y2="-132.0" stroke-width="4.4" stroke="#6200ee"/>
<text x="-1.4695761589768237e-14" y="-80.0" font-size="22.000000000000004" text-anchor="middle" dominant-baseline="central" fill="#000000">0.5</text>
<text x="-2.929967466960043e-14" y="-159.50000000000003" font-size="33.0" text-anchor="middle" dominant-baseline="central" fill="#6200ee">184</text>
<path d="M -110.00000000000001 4.0413344371862656e-14 A 110.00000000000001 110.00000000000001 0 0 1 110.00000000000001 -2.6942229581241774e-14" fill="none" stroke-width="2.2" stroke="#6200ee"/>
<line x1="3.061616997868383e-14" y1="100.0" x2="4.0413344371862656e-14" y2="132.0" stroke-width="4.4" stroke="#03dac5"/>
<text x="2.4492935982947064e-14" y="80.0" font-size="22.000000000000004" text-anchor="middle" dominant-baseline="central" fill="#000000">1.5</text>
<text x="4.883279111600072e-14" y="159.50000000000003" font-size="33.0" text-anchor="middle" dominant-baseline="central" fill="#03dac5">330</text>
<path d="M 110.00000000000001 -2.6942229581241774e-14 A 110.00000000000001 110.00000000000001 0 0 1 -110.00000000000001 4.0413344371862656e-14" fill="none" stroke-width="2.2" stroke="#03dac5"/>
<circle cx="-110.00000000000001" cy="4.0413344371862656e-14" r="5.500000000000001" stroke-width="2.2" fill="#6200ee" stroke="#6200ee" />
<circle cx="110.00000000000001" cy="-2.6942229581241774e-14" r="5.500000000000001" stroke-width="2.2" fill="#03dac5" stroke="#03dac5" />
<circle cx="0" cy="0" r="100" stroke-width="2.2" fill="#00000000" stroke="#000000" />
</svg>