<!DOCTYPE svg PUBLIC "-//W3C//DTD SVG 1.1//EN" "http://www.w3.org/Graphics/SVG/1.1/DTD/svg11.dtd">
<svg version="1.1" xmlns="http://www.w3.org/2000/svg" xmlns:xlink="http://www.w3.org/1999/xlink" xml:space="preserve" width="396" height="396" viewBox="-198 -198 396 396">
<line x1="-100.0" y1="1.2246467991473532e-14" x2="-90.0" y2="1.1021821192326179e-14" stroke-width="2.2" stroke="#000000"/>
<text x="-70.0" y="8.572527594031473e-15" font-size="33.0" text-anchor="middle" dominant-baseline="central" fill="#000000">0</text>
<line x1="49.999999999999936" y1="-86.6025403784439" x2="44.99999999999994" y2="-77.94228634059951" stroke-width="2.2" stroke="#000000"/>
<text x="34.99999999999995" y="-60.62177826491073" font-size="33.0" text-anchor="middle" dominant-baseline="central" fill="#000000">1</text>
<line x1="50.00000000000006" y1="86.60254037844383" x2="45.00000000000005" y2="77.94228634059945" stroke-width="2.2" stroke="#000000"/>
<text x="35.000000000000036" y="60.62177826491069" font-size="33.0" text-anchor="middle" dominant-baseline="central" fill="#000000">2</text>
<line x1="-91.35454576426008" y1="-40.67366430758002" x2="-120.58800040882332" y2="-53.68923688600563" stroke-width="4.4" stroke="#6200ee"/>
<text x="-73.08363661140807" y="-32.53893144606402" font-size="22.000000000000004" text-anchor="middle" dominant-baseline="central" fill="#000000">0.2</text>
<text x="-145.71050049399486" y="-64.87449457059014" font-size="33.0" text-anchor="middle" dominant-baseline="central" fill="#6200ee">184</text>
<path d="M -110.00000000000001 4.0413344371862656e-14 A 110.00000000000001 110.00000000000001 0 0 1 54.999999999999936 -95.2627944162883" fill="none" stroke-width="2.2" stroke="#6200ee"/>
<line x1="80.90169943749476" y1="58.77852522924729" x2="106.79024325749307" y2="77.58765330260643" stroke-width="4.4" stroke="#03dac5"/>
<text x="64.72135954999581" y="47.02282018339783" font-size="22.000000000000004" text-anchor="middle" dominant-baseline="central" fill="#000000">1.8</text>
<text x="129.03821060280416" y="93.75174774064945" font-size="33.0" text-anchor="middle" dominant-baseline="central" fill="#03dac5">330</text>
<path d="M 54.999999999999936 -95.2627944162883 A 110.00000000000001 110.00000000000001 0 0 1 -11.498130959441818 109.39740849051009" fill="none" stroke-width="2.2" stroke="#03dac5"/>
<line x1="-91.35454576426012" y1="40.67366430757994" x2="-120.58800040882336" y2="53.689236886005524" stroke-width="4.4" stroke="#ff0000"/>
<text x="-73.0836366114081" y="32.538931446063955" font-size="22.000000000000004" text-anchor="middle" dominant-baseline="central" fill="#000000">2.8</text>
<text x="-145.7105004939949" y="64.87449457059002" font-size="33.0" text-anchor="middle" dominant-baseline="central" fill="#ff0000">330</text>
<path d="M -11.498130959441818 109.39740849051009 A 110.00000000000001 110.00000000000001 0 0 1 -110.00000000000001 4.0413344371862656e-14" fill="none" stroke-width="2.2" stroke="#ff0000"/>
<circle cx="-110.00000000000001" cy="4.0413344371862656e-14" r="5.500000000000001" stroke-width="2.2" fill="#6200ee" stroke="#6200ee" />
<circle cx="54.999999999999936" cy="-95.2627944162883" r="5.500000000000001" stroke-width="2.2" fill="#03dac5" stroke="#03dac5" />
<circle cx="-11.498130959441818" cy="109.39740849051009" r="5.500000000000001" stroke-width="2.2" fill="#ff0000" stroke="#ff0000" />
<circle cx="0" cy="0" r="100" stroke-width="2.2" fill="#00000000" stroke="#000000" />
</svg>