<!DOCTYPE svg PUBLIC "-//W3C//DTD SVG 1.1//EN" "http://www.w3.org/Graphics/SVG/1.1/DTD/svg11.dtd">
<svg version="1.1" xmlns="http://www.w3.org/2000/svg" xmlns:xlink="http://www.w3.org/1999/xlink" xml:space="preserve" width="396" height="396" viewBox="-198 -198 396 396">
<line x1="-100.0" y1="1.2246467991473532e-14" x2="-90.0" y2="1.1021821192326179e-14" stroke-width="2.2" stroke="#000000"/>
<text x="-70.0" y="8.572527594031473e-15" font-size="33.0" text-anchor="middle" dominant-baseline="central" fill="#000000">0</text>
<line x1="-80.90169943749476" y1="-58.7785252292473" x2="-72.81152949374528" y2="-52.900672706322574" stroke-width="2.2" stroke="#000000"/>
<text x="-56.63118960624633" y="-41.144967660473114" font-size="33.0" text-anchor="middle" dominant-baseline="central" fill="#000000">1</text>
<line x1="-30.901699437494756" y1="-95.10565162951535" x2="-27.81152949374528" y2="-85.59508646656381" stroke-width="2.2" stroke="#000000"/>
<text x="-21.63118960624633" y="-66.57395614066074" font-size="33.0" text-anchor="middle" dominant-baseline="central" fill="#000000">2</text>
<line x1="30.901699437494724" y1="-95.10565162951536" x2="27.81152949374525" y2="-85.59508646656383" stroke-width="2.2" stroke="#000000"/>
<text x="21.631189606246306" y="-66.57395614066075" font-size="33.0" text-anchor="middle" dominant-baseline="central" fill="#000000">3</text>
<line x1="80.90169943749473" y1="-58.778525229247336" x2="72.81152949374525" y2="-52.9006727063226" stroke-width="2.2" stroke="#000000"/>
<text x="56.631189606246316" y="-41.144967660473135" font-size="33.0" text-anchor="middle" dominant-baseline="central" fill="#000000">4</text>
<line x1="100.0" y1="-2.4492935982947064e-14" x2="90.0" y2="-2.2043642384652358e-14" stroke-width="2.2" stroke="#000000"/>
<text x="70.0" y="-1.7145055188062946e-14" font-size="33.0" text-anchor="middle" dominant-baseline="central" fill="#000000">5</text>
<line x1="80.90169943749476" y1="58.77852522924729" x2="72.81152949374528" y2="52.90067270632256" stroke-width="2.2" stroke="#000000"/>
<text x="56.63118960624633" y="41.14496766047311" font-size="33.0" text-anchor="middle" dominant-baseline="central" fill="#000000">6</text>
<line x1="30.901699437494774" y1="95.10565162951535" x2="27.811529493745297" y2="85.59508646656381" stroke-width="2.2" stroke="#000000"/>
<text x="21.63118960624634" y="66.57395614066074" font-size="33.0" text-anchor="middle" dominant-baseline="central" fill="#000000">7</text>
<line x1="-30.901699437494713" y1="95.10565162951536" x2="-27.81152949374524" y2="85.59508646656383" stroke-width="2.2" stroke="#000000"/>
<text x="-21.6311896062463" y="66.57395614066075" font-size="33.0" text-anchor="middle" dominant-baseline="central" fill="#000000">8</text>
<line x1="-80.90169943749473" y1="58.778525229247336" x2="-72.81152949374525" y2="52.9006727063226" stroke-width="2.2" stroke="#000000"/>
<text x="-56.63118960624631" y="41.144967660473135" font-size="33.0" text-anchor="middle" dominant-baseline="central" fill="#000000">9</text>
<line x1="-100.0" y1="1.2246467991473532e-14" x2="-132.0" y2="1.6165337748745062e-14" stroke-width="4.4" stroke="#6200ee"/>
<text x="-159.50000000000003" y="1.9533116446400288e-14" font-size="33.0" text-anchor="middle" dominant-baseline="central" fill="#6200ee">330</text>
<path d="M -88.9918693812442 64.65637775217208 A 110.00000000000001 110.00000000000001 0 0 1 -88.99186938124424 -64.65637775217205" fill="none" stroke-width="2.2" stroke="#6200ee"/>
<line x1="-30.901699437494756" y1="-95.10565162951535" x2="-40.79024325749308" y2="-125.53946015096027" stroke-width="4.4" stroke="#03dac5"/>
<text x="-49.28821060280414" y="-151.69351434907702" font-size="33.0" text-anchor="middle" dominant-baseline="central" fill="#03dac5">184</text>
<path d="M -88.99186938124424 -64.65637775217205 A 110.00000000000001 110.00000000000001 0 0 1 110.00000000000001 -2.6942229581241774e-14" fill="none" stroke-width="2.2" stroke="#03dac5"/>
<line x1="-30.901699437494713" y1="95.10565162951536" x2="-40.79024325749302" y2="125.53946015096028" stroke-width="4.4" stroke="#ff0000"/>
<text x="-49.28821060280407" y="151.69351434907702" font-size="33.0" text-anchor="middle" dominant-baseline="central" fill="#ff0000">200</text>
<path d="M 110.00000000000001 -2.6942229581241774e-14 A 110.00000000000001 110.00000000000001 0 0 1 -88.9918693812442 64.65637775217208" fill="none" stroke-width="2.2" stroke="#ff0000"/>
<circle cx="-88.9918693812442" cy="64.65637775217208" r="5.500000000000001" stroke-width="2.2" fill="#6200ee" stroke="#6200ee" />
<circle cx="-88.99186938124424" cy="-64.65637775217205" r="5.500000000000001" stroke-width="2.2" fill="#03dac5" stroke="#03dac5" />
<circle cx="110.00000000000001" cy="-2.6942229581241774e-14" r="5.500000000000001" stroke-width="2.2" fill="#ff0000" stroke="#ff0000" />
<circle cx="0" cy="0" r="100" stroke-width="2.2" fill="#00000000" stroke="#000000" />
</svg>